{"asset":{"version":"2.0","generator":"babylon.js glTF exporter for 3ds max 2019 v1.2.40","copyright":"2017 (c) BabylonJS"},"extensionsUsed":["KHR_lights"],"scene":0,"scenes":[{"nodes":[0],"extensions":{"KHR_lights":{"light":0}}}],"nodes":[{"children":[1,2,3,4],"translation":[0.0,0.0,0.0],"rotation":[0.0,0.0,0.0,1.0],"scale":[999.999939,999.999939,999.999939],"name":"root"},{"mesh":0,"translation":[0.0,0.0,0.0],"rotation":[0.0,0.0,0.0,1.0],"scale":[1.0,1.0,1.0],"name":"Scene"},{"mesh":1,"translation":[-12.4778423,5.001671,-9.902282],"rotation":[0.0,0.0,0.0,1.0],"scale":[1.0,1.0,1.0],"name":"Box"},{"mesh":2,"translation":[12.2539063,6.32471466,-19.4630337],"rotation":[0.0,0.0,0.0,1.0],"scale":[1.0,1.0,1.0],"name":"Sphere"},{"translation":[0.0,0.0,0.0],"rotation":[0.0,0.0,0.0,1.0],"scale":[1.0,1.0,1.0],"name":"Default light"}],"meshes":[{"primitives":[{"attributes":{"POSITION":1,"NORMAL":2,"TEXCOORD_0":3,"TEXCOORD_1":4},"indices":0,"mode":4,"material":0}],"name":"Scene"},{"primitives":[{"attributes":{"POSITION":6,"NORMAL":7,"TEXCOORD_0":8,"TEXCOORD_1":9},"indices":5,"mode":4,"material":1}],"name":"Box"},{"primitives":[{"attributes":{"POSITION":11,"NORMAL":12,"TEXCOORD_0":13,"TEXCOORD_1":14},"indices":10,"mode":4,"material":2}],"name":"Sphere"}],"accessors":[{"bufferView":0,"componentType":5123,"count":24,"type":"SCALAR","name":"accessorIndices"},{"bufferView":1,"componentType":5126,"count":24,"max":[30.0,30.0,30.0],"min":[-30.0,0.0,-30.0],"type":"VEC3","name":"accessorPositions"},{"bufferView":1,"byteOffset":288,"componentType":5126,"count":24,"type":"VEC3","name":"accessorNormals"},{"bufferView":2,"componentType":5126,"count":24,"type":"VEC2","name":"accessorUVs"},{"bufferView":2,"byteOffset":192,"componentType":5126,"count":24,"type":"VEC2","name":"accessorUV2s"},{"bufferView":0,"byteOffset":48,"componentType":5123,"count":36,"type":"SCALAR","name":"accessorIndices"},{"bufferView":1,"byteOffset":576,"componentType":5126,"count":36,"max":[3.98294258,7.99401474,4.77724457],"min":[-3.98294258,0.0,-4.77724457],"type":"VEC3","name":"accessorPositions"},{"bufferView":1,"byteOffset":1008,"componentType":5126,"count":36,"type":"VEC3","name":"accessorNormals"},{"bufferView":2,"byteOffset":384,"componentType":5126,"count":36,"type":"VEC2","name":"accessorUVs"},{"bufferView":2,"byteOffset":672,"componentType":5126,"count":36,"type":"VEC2","name":"accessorUV2s"},{"bufferView":0,"byteOffset":120,"componentType":5123,"count":2880,"type":"SCALAR","name":"accessorIndices"},{"bufferView":1,"byteOffset":1440,"componentType":5126,"count":2880,"max":[5.76407051,5.76407051,5.76407051],"min":[-5.76407,-5.76407,-5.76407051],"type":"VEC3","name":"accessorPositions"},{"bufferView":1,"byteOffset":36000,"componentType":5126,"count":2880,"type":"VEC3","name":"accessorNormals"},{"bufferView":2,"byteOffset":960,"componentType":5126,"count":2880,"type":"VEC2","name":"accessorUVs"},{"bufferView":2,"byteOffset":24000,"componentType":5126,"count":2880,"type":"VEC2","name":"accessorUV2s"}],"bufferViews":[{"buffer":0,"byteLength":5880,"name":"bufferViewScalar"},{"buffer":0,"byteOffset":5880,"byteLength":70560,"byteStride":12,"name":"bufferViewFloatVec3"},{"buffer":0,"byteOffset":76440,"byteLength":47040,"byteStride":8,"name":"bufferViewFloatVec2"}],"buffers":[{"uri":"scene.bin","byteLength":123480}],"materials":[{"pbrMetallicRoughness":{"baseColorFactor":[1.0,1.0,1.0,1.0],"baseColorTexture":{"index":1,"texCoord":0},"metallicFactor":0.0,"roughnessFactor":0.9},"occlusionTexture":{"index":0,"texCoord":1},"emissiveFactor":[0.0,0.0,0.0],"alphaMode":"OPAQUE","name":"SceneMat"},{"pbrMetallicRoughness":{"baseColorFactor":[1.0,1.0,1.0,1.0],"baseColorTexture":{"index":1,"texCoord":0},"metallicFactor":1.0,"roughnessFactor":1.0,"metallicRoughnessTexture":{"index":0}},"occlusionTexture":{"index":0,"texCoord":1},"emissiveFactor":[0.0,0.0,0.0],"alphaMode":"OPAQUE","name":"CubeMat"},{"pbrMetallicRoughness":{"baseColorFactor":[1.0,1.0,1.0,1.0],"baseColorTexture":{"index":1,"texCoord":0},"metallicFactor":1.0,"roughnessFactor":1.0,"metallicRoughnessTexture":{"index":0}},"occlusionTexture":{"index":0,"texCoord":1},"emissiveFactor":[0.0,0.0,0.0],"alphaMode":"OPAQUE","name":"SphereMat"}],"textures":[{"sampler":0,"source":0,"name":"SceneLightingMap.png"},{"sampler":1,"source":1,"name":"SceneMat_baseColor.jpg"}],"images":[{"uri":"SceneLightingMap.png"},{"uri":"SceneMat_baseColor.jpg"}],"samplers":[{"magFilter":9729,"minFilter":9987,"wrapS":10497,"wrapT":10497},{"magFilter":9729,"minFilter":9987,"wrapS":10497,"wrapT":10497}],"extensions":{"KHR_lights":{"lights":[{"color":[1.0,1.0,1.0],"intensity":1.0,"type":"ambient"}]}}}